<svg width="190" height="46" viewBox="0 0 190 46" fill="none" xmlns="http://www.w3.org/2000/svg">
<path d="M62.3831 40.7712H58.6247C58.5994 40.7716 58.5742 40.7672 58.5507 40.7576C58.5273 40.7484 58.506 40.7341 58.488 40.7161C58.4702 40.6985 58.4561 40.6769 58.4467 40.6534C58.4372 40.6298 58.4326 40.6046 58.4331 40.5795V35.422C58.4331 35.3712 58.4534 35.3225 58.4893 35.2866C58.5252 35.2506 58.5739 35.2302 58.6247 35.2302H62.3512C62.4016 35.2314 62.4498 35.2518 62.4855 35.2874C62.5212 35.3233 62.5417 35.3712 62.5427 35.422V36.0572C62.5417 36.1079 62.5212 36.1559 62.4855 36.1918C62.4498 36.2274 62.4016 36.2477 62.3512 36.2489H59.5583V37.4754H62.2315C62.2823 37.4754 62.331 37.4958 62.3669 37.5317C62.4028 37.5677 62.423 37.6164 62.423 37.6671V38.2983C62.4235 38.3235 62.4189 38.3487 62.4095 38.3722C62.4001 38.3958 62.386 38.4174 62.3681 38.435C62.3502 38.4529 62.3289 38.4673 62.3054 38.4765C62.2819 38.4861 62.2568 38.4905 62.2315 38.4901H59.5583V39.7685H62.403C62.4538 39.7685 62.5026 39.7889 62.5385 39.8248C62.5744 39.8608 62.5946 39.9095 62.5946 39.9602V40.5914C62.5931 40.6174 62.5864 40.6426 62.5748 40.6661C62.5633 40.6893 62.5471 40.7097 62.5273 40.7269C62.5076 40.7436 62.4845 40.756 62.4598 40.7636C62.435 40.7716 62.4089 40.774 62.3831 40.7712Z" fill="black"/>
<path d="M70.7258 40.7712H67.0631C67.038 40.7712 67.013 40.7664 66.9898 40.7564C66.9666 40.7468 66.9455 40.7329 66.9277 40.7149C66.9099 40.6973 66.8958 40.6761 66.8861 40.653C66.8765 40.6294 66.8716 40.6046 66.8716 40.5795V35.422C66.8726 35.3712 66.8931 35.3233 66.9288 35.2874C66.9645 35.2518 67.0126 35.2314 67.0631 35.2302H67.7853C67.8361 35.2302 67.8848 35.2506 67.9207 35.2866C67.9566 35.3225 67.9768 35.3712 67.9768 35.422V39.7365H70.7178C70.7686 39.7365 70.8173 39.7569 70.8532 39.7928C70.8891 39.8288 70.9093 39.8775 70.9093 39.9283V40.5795C70.9093 40.629 70.8903 40.6765 70.8561 40.7125C70.8219 40.748 70.7752 40.7692 70.7258 40.7712Z" fill="black"/>
<path d="M78.7971 40.7712H75.0426C75.0174 40.7712 74.9925 40.7664 74.9693 40.7564C74.9461 40.7468 74.925 40.7329 74.9072 40.7149C74.8894 40.6973 74.8753 40.6761 74.8656 40.653C74.856 40.6294 74.8511 40.6046 74.8511 40.5794V35.422C74.8521 35.3712 74.8726 35.3233 74.9083 35.2874C74.944 35.2518 74.9921 35.2314 75.0426 35.2302H78.7731C78.8235 35.2314 78.8717 35.2518 78.9073 35.2874C78.943 35.3233 78.9635 35.3712 78.9646 35.422V36.0572C78.9635 36.1079 78.943 36.1559 78.9073 36.1918C78.8717 36.2274 78.8235 36.2477 78.7731 36.2489H75.9563V37.4754H78.6334C78.6839 37.4766 78.732 37.497 78.7677 37.5325C78.8034 37.5685 78.8239 37.6164 78.8249 37.6671V38.2983C78.8249 38.3491 78.8048 38.3978 78.7688 38.4338C78.7329 38.4697 78.6842 38.4901 78.6334 38.4901H75.9563V39.7685H78.801C78.8263 39.7681 78.8515 39.7725 78.875 39.7821C78.8984 39.7912 78.9197 39.8056 78.9377 39.8236C78.9555 39.8412 78.9696 39.8628 78.979 39.8863C78.9885 39.9099 78.9931 39.9351 78.9925 39.9602V40.5914C78.9915 40.6162 78.9856 40.6402 78.9752 40.6625C78.9649 40.6849 78.9501 40.7053 78.932 40.7221C78.9138 40.7384 78.8926 40.7516 78.8694 40.76C78.8462 40.7684 78.8217 40.7724 78.7971 40.7712Z" fill="black"/>
<path d="M88.1134 36.4648L87.483 36.8643C87.4427 36.8886 87.3945 36.8974 87.3482 36.8886C87.3019 36.8799 87.2604 36.8539 87.2317 36.8163C87.0725 36.6166 86.8694 36.4564 86.6384 36.3485C86.407 36.2403 86.154 36.1871 85.8991 36.1931C85.5943 36.1883 85.2934 36.2606 85.0237 36.4029C84.7544 36.5455 84.525 36.7532 84.3566 37.0081C84.1886 37.2626 84.0873 37.555 84.0618 37.8594C84.0366 38.1634 84.0881 38.469 84.2118 38.7479C84.3351 39.0267 84.527 39.27 84.7692 39.4554C85.0113 39.6404 85.2962 39.7618 85.5975 39.8078C85.8987 39.8537 86.2067 39.8229 86.4932 39.7183C86.7792 39.6136 87.0346 39.4386 87.2357 39.2093C87.2652 39.1702 87.3087 39.1438 87.3574 39.1362C87.4056 39.129 87.4551 39.1406 87.495 39.1694L88.0895 39.5968C88.1102 39.6124 88.1278 39.6316 88.1414 39.6539C88.1545 39.6759 88.1633 39.7007 88.1669 39.7263C88.1705 39.7518 88.1693 39.7782 88.1629 39.8034C88.1565 39.8281 88.145 39.8517 88.1294 39.8725C87.819 40.2508 87.418 40.544 86.9636 40.7254C86.5095 40.9064 86.0168 40.9695 85.5316 40.9088C85.0465 40.8476 84.5844 40.6651 84.189 40.377C83.7937 40.0894 83.4773 39.7059 83.2694 39.2628C83.0617 38.8198 82.9695 38.3312 83.0012 37.8426C83.033 37.3541 83.1877 36.8815 83.4509 36.4688C83.7143 36.0565 84.0777 35.7173 84.507 35.4832C84.9363 35.2491 85.4183 35.1281 85.9071 35.1305C86.3436 35.1157 86.7772 35.2056 87.1722 35.3925C87.5668 35.5795 87.9116 35.858 88.1773 36.2051C88.2016 36.2487 88.2084 36.2994 88.1964 36.3477C88.1849 36.3957 88.1549 36.4376 88.1134 36.4648Z" fill="black"/>
<path d="M96.3443 36.2569H94.8162V40.5795C94.8166 40.6046 94.8122 40.6298 94.8026 40.6534C94.7934 40.6769 94.7791 40.6985 94.7611 40.7161C94.7435 40.7341 94.722 40.7484 94.6985 40.7576C94.6749 40.7672 94.6498 40.7716 94.6246 40.7712H93.9025C93.8518 40.7712 93.8027 40.7508 93.7668 40.7149C93.7309 40.6789 93.711 40.6302 93.711 40.5795V36.2569H92.1988C92.1482 36.2569 92.0995 36.2366 92.0636 36.2006C92.0277 36.1646 92.0073 36.1159 92.0073 36.0652V35.422C92.0073 35.3712 92.0277 35.3225 92.0636 35.2866C92.0995 35.2506 92.1482 35.2302 92.1988 35.2302H96.3562C96.4069 35.2302 96.4556 35.2506 96.4915 35.2866C96.5274 35.3225 96.5477 35.3712 96.5477 35.422V36.0772C96.5462 36.1023 96.5398 36.1271 96.5286 36.1499C96.5174 36.1722 96.5023 36.1926 96.4831 36.2094C96.4644 36.2262 96.4424 36.2389 96.4185 36.2469C96.3945 36.2553 96.3694 36.2585 96.3443 36.2569Z" fill="black"/>
<path d="M102.812 35.2183C104.136 35.2183 104.843 35.8455 104.843 36.9081C104.843 37.823 104.208 38.4422 103.143 38.546L104.699 40.5755C104.715 40.5923 104.726 40.6138 104.73 40.637C104.734 40.6602 104.73 40.6837 104.72 40.7049C104.71 40.7261 104.694 40.7437 104.674 40.7556C104.654 40.7676 104.631 40.7728 104.607 40.7712H103.666C103.618 40.7708 103.572 40.7592 103.53 40.7377C103.487 40.7165 103.451 40.6853 103.422 40.6474L101.898 38.562H101.571V40.5595C101.572 40.5847 101.567 40.6098 101.557 40.6334C101.548 40.657 101.534 40.6785 101.516 40.6961C101.498 40.7141 101.477 40.7285 101.453 40.7377C101.43 40.7473 101.405 40.7517 101.379 40.7513H100.657C100.607 40.7513 100.558 40.7309 100.522 40.6949C100.486 40.659 100.466 40.6102 100.466 40.5595V35.422C100.467 35.3713 100.487 35.3233 100.523 35.2874C100.559 35.2518 100.607 35.2314 100.657 35.2302L102.812 35.2183ZM101.571 36.237V37.5992H102.792C103.394 37.5992 103.706 37.3755 103.706 36.9081C103.706 36.4407 103.378 36.237 102.792 36.237H101.571Z" fill="black"/>
<path d="M109.941 40.7712H109.219C109.194 40.7712 109.169 40.7664 109.146 40.7564C109.123 40.7468 109.102 40.7329 109.084 40.7149C109.066 40.6973 109.052 40.6761 109.043 40.653C109.033 40.6294 109.028 40.6046 109.028 40.5795V35.422C109.029 35.3712 109.049 35.3233 109.085 35.2874C109.121 35.2518 109.169 35.2314 109.219 35.2302H109.941C109.992 35.2302 110.041 35.2506 110.077 35.2866C110.113 35.3225 110.133 35.3712 110.133 35.422V40.5914C110.131 40.6406 110.11 40.6869 110.074 40.7205C110.038 40.754 109.991 40.7724 109.941 40.7712Z" fill="black"/>
<path d="M119.418 36.4648L118.783 36.8643C118.743 36.8887 118.696 36.897 118.65 36.8883C118.605 36.8791 118.564 36.8535 118.536 36.8163C118.377 36.6166 118.174 36.4564 117.943 36.3485C117.711 36.2403 117.458 36.1871 117.203 36.1931C116.737 36.2151 116.297 36.4161 115.975 36.754C115.653 37.092 115.473 37.5414 115.473 38.0088C115.473 38.4762 115.653 38.9257 115.975 39.2636C116.297 39.6016 116.737 39.8026 117.203 39.8245C117.457 39.8289 117.709 39.7762 117.94 39.6695C118.17 39.5629 118.374 39.4059 118.536 39.2093C118.567 39.1706 118.611 39.145 118.66 39.1374C118.709 39.1302 118.759 39.1414 118.799 39.1694L119.39 39.5968C119.411 39.612 119.429 39.6312 119.442 39.6532C119.456 39.6751 119.465 39.6999 119.47 39.7255C119.473 39.751 119.472 39.7774 119.466 39.8026C119.46 39.8277 119.449 39.8517 119.434 39.8725C119.123 40.2508 118.722 40.544 118.268 40.725C117.814 40.9064 117.321 40.9695 116.836 40.9088C116.351 40.8476 115.889 40.6651 115.493 40.377C115.098 40.0894 114.781 39.7059 114.574 39.2628C114.366 38.8198 114.274 38.3308 114.305 37.8426C114.337 37.3541 114.492 36.8815 114.755 36.4688C115.018 36.0565 115.382 35.7173 115.811 35.4832C116.241 35.2491 116.722 35.1281 117.211 35.1305C117.647 35.1157 118.081 35.2052 118.475 35.3921C118.869 35.5791 119.213 35.858 119.477 36.2051C119.503 36.2479 119.511 36.2986 119.5 36.3469C119.489 36.3957 119.459 36.4376 119.418 36.4648Z" fill="black"/>
<path d="M133.693 36.4648L133.063 36.8643C133.023 36.8886 132.975 36.8974 132.928 36.8886C132.882 36.8799 132.84 36.8539 132.812 36.8163C132.652 36.6166 132.449 36.4564 132.218 36.3485C131.987 36.2403 131.734 36.1871 131.479 36.1931C131.013 36.2151 130.573 36.416 130.251 36.754C129.929 37.092 129.749 37.5414 129.749 38.0088C129.749 38.4762 129.929 38.9257 130.251 39.2636C130.573 39.6016 131.013 39.8026 131.479 39.8245C131.733 39.8293 131.985 39.7766 132.216 39.6699C132.447 39.5633 132.65 39.4059 132.812 39.2093C132.842 39.1706 132.887 39.145 132.936 39.1374C132.984 39.1302 133.034 39.1414 133.075 39.1694L133.669 39.5968C133.69 39.6124 133.708 39.6316 133.721 39.6539C133.734 39.6759 133.743 39.7007 133.747 39.7263C133.751 39.7518 133.749 39.7782 133.743 39.8034C133.736 39.8281 133.725 39.8517 133.709 39.8725C133.399 40.2508 132.998 40.544 132.544 40.7254C132.089 40.9064 131.597 40.9695 131.112 40.9088C130.626 40.8476 130.165 40.6651 129.769 40.377C129.374 40.0894 129.057 39.7059 128.849 39.2628C128.642 38.8198 128.55 38.3312 128.581 37.8426C128.613 37.3541 128.768 36.8815 129.031 36.4688C129.294 36.0565 129.658 35.7173 130.087 35.4832C130.517 35.2491 130.998 35.1281 131.487 35.1305C131.924 35.1157 132.357 35.2056 132.752 35.3925C133.147 35.5795 133.492 35.858 133.757 36.2051C133.782 36.2487 133.788 36.2994 133.776 36.3477C133.765 36.3957 133.735 36.4376 133.693 36.4648Z" fill="black"/>
<path d="M142.83 40.7712H142.072C142.02 40.772 141.969 40.7568 141.926 40.7273C141.884 40.6981 141.851 40.6562 141.833 40.6074L141.41 39.4769H139.048L138.625 40.6074C138.607 40.6562 138.574 40.6981 138.531 40.7273C138.488 40.7568 138.437 40.772 138.385 40.7712H137.651C137.624 40.7712 137.599 40.7644 137.575 40.7521C137.551 40.7397 137.531 40.7213 137.516 40.6993C137.502 40.6773 137.492 40.6522 137.489 40.6254C137.486 40.599 137.49 40.5723 137.5 40.5475L139.494 35.3821C139.513 35.3345 139.546 35.2938 139.587 35.2646C139.629 35.2354 139.679 35.2195 139.73 35.2183H140.731C140.782 35.2187 140.832 35.2346 140.874 35.2638C140.916 35.293 140.948 35.3341 140.967 35.3821L142.962 40.5475C142.971 40.5707 142.975 40.5959 142.973 40.621C142.971 40.6458 142.964 40.6702 142.951 40.6917C142.938 40.7133 142.921 40.7317 142.9 40.7457C142.879 40.7592 142.855 40.768 142.83 40.7712ZM139.423 38.4582H141.019L140.221 36.3129L139.423 38.4582Z" fill="black"/>
<path d="M159.348 36.4566C159.322 36.4998 159.28 36.5309 159.232 36.5437C159.183 36.5561 159.132 36.5493 159.088 36.5245C158.658 36.2816 158.174 36.1526 157.68 36.149C157.062 36.149 156.619 36.3927 156.619 36.8122C156.619 37.2316 157.098 37.3435 157.764 37.4554L158.079 37.5073C159.068 37.6711 159.842 38.0945 159.842 39.0613C159.842 40.2878 158.765 40.871 157.576 40.871C156.8 40.8826 156.038 40.6677 155.382 40.2518C155.342 40.223 155.315 40.1795 155.307 40.1312C155.298 40.0824 155.31 40.0325 155.338 39.9921L155.705 39.4209C155.719 39.3993 155.737 39.3809 155.758 39.3665C155.779 39.3521 155.803 39.3422 155.828 39.3374C155.853 39.3326 155.878 39.3326 155.903 39.3382C155.928 39.3438 155.952 39.3541 155.972 39.3689C156.447 39.6805 157.001 39.8483 157.568 39.8523C158.179 39.8523 158.658 39.6086 158.658 39.1812C158.658 38.7537 158.259 38.6538 157.481 38.53L157.125 38.4741C156.148 38.3222 155.438 37.8868 155.438 36.8761C155.438 35.7175 156.467 35.1183 157.644 35.1183C158.325 35.1059 158.997 35.2753 159.591 35.6097C159.614 35.6221 159.634 35.6389 159.65 35.6592C159.666 35.6796 159.678 35.7028 159.685 35.7275C159.692 35.7527 159.694 35.7787 159.691 35.8042C159.688 35.8298 159.68 35.855 159.667 35.8773L159.348 36.4566Z" fill="black"/>
<path d="M149.286 35.2183C150.61 35.2183 151.321 35.8455 151.321 36.9081C151.321 37.823 150.686 38.4422 149.621 38.546L151.177 40.5755C151.193 40.5927 151.204 40.6142 151.208 40.6378C151.212 40.6614 151.208 40.6857 151.198 40.7069C151.187 40.7285 151.171 40.7461 151.149 40.7576C151.129 40.7692 151.105 40.774 151.081 40.7712H150.144C150.096 40.7708 150.049 40.7592 150.005 40.7381C149.963 40.7165 149.925 40.6853 149.896 40.6474L148.372 38.562H148.057V40.5595C148.057 40.6102 148.037 40.659 148.001 40.6949C147.965 40.7309 147.916 40.7513 147.865 40.7513H147.143C147.118 40.7517 147.093 40.7473 147.069 40.7377C147.046 40.7285 147.024 40.7141 147.007 40.6961C146.989 40.6785 146.974 40.657 146.965 40.6334C146.956 40.6098 146.951 40.5847 146.952 40.5595V35.422C146.952 35.3713 146.972 35.3225 147.008 35.2866C147.044 35.2506 147.093 35.2302 147.143 35.2302L149.286 35.2183ZM148.057 36.221V37.5833H149.254C149.856 37.5833 150.171 37.3596 150.171 36.8921C150.171 36.4247 149.84 36.221 149.254 36.221H148.057Z" fill="black"/>
<path d="M58.4331 28.1035V9.17545C58.4331 8.96332 58.5172 8.76038 58.6668 8.61057C58.8165 8.46076 59.0194 8.37646 59.2311 8.37646H62.0519C62.2635 8.37646 62.4665 8.46076 62.6162 8.61057C62.7658 8.76038 62.8499 8.96332 62.8499 9.17545V16.5301H66.1535L70.9053 9.0596C71.0335 8.85746 71.2102 8.69047 71.4192 8.57382C71.6283 8.45756 71.863 8.39484 72.1022 8.39245H75.2941C75.3804 8.39165 75.4652 8.41442 75.5395 8.45836C75.6138 8.50231 75.6747 8.56583 75.7157 8.64173C75.7568 8.71763 75.7763 8.80353 75.7723 8.88982C75.7683 8.97611 75.7409 9.0596 75.6931 9.13151L69.5488 18.3758L76.0722 28.1474C76.12 28.2193 76.1474 28.3028 76.1514 28.3891C76.1553 28.4754 76.1358 28.5613 76.0947 28.6372C76.0537 28.7131 75.9928 28.7766 75.9186 28.8206C75.8443 28.8645 75.7594 28.8873 75.6732 28.8865H72.4813C72.2446 28.8869 72.0116 28.829 71.8027 28.7171C71.5939 28.6056 71.4158 28.4443 71.2844 28.2473L66.1255 20.5131H62.8219V28.1035C62.8219 28.3152 62.7379 28.5186 62.5882 28.6684C62.4386 28.8182 62.2356 28.9025 62.0239 28.9025H59.2032C58.9964 28.8953 58.8006 28.8078 58.6569 28.6588C58.5132 28.5098 58.433 28.3104 58.4331 28.1035Z" fill="black"/>
<path d="M87.16 28.1393L79.8267 9.24326C79.7896 9.14858 79.7762 9.04631 79.7877 8.94484C79.7992 8.84377 79.8352 8.74709 79.8927 8.66319C79.9502 8.5793 80.0273 8.51059 80.1173 8.46345C80.2074 8.41631 80.3076 8.39194 80.4093 8.39234H83.4056C83.6468 8.39553 83.8813 8.47184 84.0785 8.61086C84.2757 8.74988 84.4264 8.94524 84.5108 9.17135L89.6975 23.7329L94.9083 9.17135C94.9898 8.94324 95.1397 8.74589 95.3376 8.60647C95.5354 8.46704 95.7715 8.39234 96.0135 8.39234H99.0098C99.1111 8.39274 99.2109 8.41791 99.3002 8.46545C99.39 8.51259 99.4666 8.5813 99.5237 8.66479C99.5811 8.74868 99.6174 8.84496 99.629 8.94564C99.641 9.04631 99.6286 9.14858 99.5923 9.24326L92.2311 28.1393C92.1452 28.3594 91.9948 28.5488 91.7998 28.6818C91.6048 28.8153 91.3741 28.8864 91.1379 28.8864H88.2413C88.007 28.8848 87.7787 28.8125 87.5859 28.6794C87.3931 28.546 87.2448 28.3578 87.16 28.1393Z" fill="black"/>
<path d="M101.128 28.0275L108.84 9.1234C108.928 8.90728 109.079 8.72271 109.272 8.59248C109.465 8.46224 109.693 8.39234 109.926 8.39234H113.086C113.319 8.39194 113.546 8.46145 113.74 8.59168C113.933 8.72192 114.083 8.90688 114.171 9.1234L121.859 28.0275C121.898 28.1221 121.913 28.2252 121.902 28.3271C121.892 28.429 121.856 28.5268 121.799 28.6115C121.742 28.6966 121.664 28.7661 121.574 28.8141C121.484 28.862 121.383 28.8868 121.281 28.8864H118.488C118.252 28.8872 118.021 28.8161 117.825 28.6826C117.63 28.5492 117.48 28.3598 117.395 28.1393L116.198 25.0512H106.841L105.613 28.1473C105.526 28.3658 105.376 28.5532 105.182 28.6846C104.987 28.8165 104.758 28.8868 104.523 28.8864H101.731C101.626 28.8908 101.523 28.8688 101.429 28.8229C101.335 28.7765 101.255 28.7074 101.195 28.6219C101.135 28.5364 101.097 28.4369 101.085 28.3331C101.074 28.2292 101.089 28.1241 101.128 28.0275ZM108.202 21.4398H114.809L111.944 14.0931C111.752 13.5742 111.605 13.0396 111.506 12.4951C111.416 13.0448 111.259 13.5818 111.039 14.0931L108.202 21.4398Z" fill="black"/>
<path d="M127.449 28.1032V9.17521C127.449 8.96308 127.533 8.76013 127.683 8.61032C127.833 8.46051 128.036 8.37622 128.247 8.37622H130.88C131.1 8.37662 131.315 8.42935 131.51 8.52923C131.705 8.6291 131.873 8.77372 132.002 8.95149L141.122 21.7553C141.063 20.9084 141.035 19.8817 141.035 18.9588V9.17521C141.035 8.96308 141.119 8.76013 141.268 8.61032C141.418 8.46051 141.621 8.37622 141.833 8.37622H144.653C144.865 8.37622 145.068 8.46051 145.218 8.61032C145.367 8.76013 145.451 8.96308 145.451 9.17521V28.1032C145.451 28.315 145.367 28.5183 145.218 28.6681C145.068 28.8179 144.865 28.9022 144.653 28.9022H141.988C141.77 28.9018 141.554 28.8495 141.36 28.7496C141.166 28.6497 140.998 28.5047 140.871 28.327L131.75 15.5232C131.806 16.3701 131.838 17.3968 131.838 18.3196V28.1072C131.838 28.319 131.754 28.5223 131.604 28.6721C131.455 28.8219 131.252 28.9062 131.04 28.9062H128.219C128.012 28.899 127.816 28.8111 127.671 28.6609C127.528 28.5111 127.448 28.311 127.449 28.1032Z" fill="black"/>
<path d="M167.866 9.17524V11.5722C167.866 11.7839 167.782 11.9873 167.632 12.1371C167.483 12.2869 167.28 12.3712 167.068 12.3712H161.566V28.1312C161.566 28.343 161.482 28.5463 161.332 28.6961C161.183 28.8459 160.98 28.9302 160.768 28.9302H157.975C157.764 28.9302 157.561 28.8459 157.411 28.6961C157.262 28.5463 157.177 28.343 157.177 28.1312V12.3432H151.672C151.46 12.3432 151.257 12.2589 151.107 12.1091C150.958 11.9593 150.874 11.756 150.874 11.5442V9.14728C150.874 8.93555 150.958 8.73221 151.107 8.5824C151.257 8.43259 151.46 8.34829 151.672 8.34829H167.036C167.146 8.3439 167.256 8.36227 167.358 8.40222C167.46 8.44217 167.554 8.5025 167.632 8.5804C167.709 8.6579 167.77 8.75098 167.811 8.85325C167.851 8.95552 167.87 9.06538 167.866 9.17524Z" fill="black"/>
<path d="M169.218 28.0275L176.935 9.1234C177.022 8.90688 177.172 8.72192 177.366 8.59168C177.559 8.46145 177.787 8.39194 178.02 8.39234H181.18C181.413 8.39234 181.64 8.46224 181.834 8.59248C182.027 8.72271 182.177 8.90728 182.265 9.1234L189.954 28.0275C189.992 28.1221 190.007 28.2252 189.997 28.3271C189.986 28.429 189.95 28.5268 189.893 28.6115C189.836 28.6966 189.759 28.7661 189.669 28.8141C189.578 28.862 189.477 28.8868 189.375 28.8864H186.582C186.346 28.8864 186.115 28.8153 185.92 28.6818C185.725 28.5488 185.575 28.3594 185.489 28.1393L184.292 25.0512H174.932L173.707 28.1473C173.62 28.3654 173.47 28.5524 173.276 28.6842C173.081 28.8161 172.852 28.8864 172.618 28.8864H169.825C169.72 28.8916 169.616 28.87 169.522 28.8241C169.428 28.7781 169.347 28.7094 169.286 28.6235C169.226 28.538 169.188 28.4385 169.176 28.3343C169.164 28.23 169.179 28.1245 169.218 28.0275ZM176.3 21.4398H182.908L180.043 14.0931C179.849 13.575 179.702 13.04 179.604 12.4951C179.513 13.0444 179.356 13.581 179.137 14.0931L176.3 21.4398Z" fill="black"/>
<path fill-rule="evenodd" clip-rule="evenodd" d="M26.5618 36.4259L20.7286 39.7977L14.0098 28.1404L16.3957 25.5397L19.8389 24.7727L26.5618 36.4259Z" fill="url(#paint0_linear_102_16)"/>
<path fill-rule="evenodd" clip-rule="evenodd" d="M24.4071 16.8508H10.9653V10.1113H24.4071L25.4644 13.4791L24.4071 16.8508Z" fill="url(#paint1_linear_102_16)"/>
<path fill-rule="evenodd" clip-rule="evenodd" d="M5.26419 33.198L1.45789 26.5984C0.499936 24.9281 -0.0027813 23.0351 1.15738e-05 21.1089C0.00280445 19.1828 0.511507 17.2912 1.47425 15.6238C2.4374 13.9564 3.82107 12.5716 5.48682 11.6084C7.15257 10.6451 9.04215 10.1371 10.9656 10.1353V16.8707C10.2184 16.8699 9.48423 17.0664 8.83708 17.4405C8.18993 17.8145 7.65249 18.3528 7.27945 19.0011C6.9064 19.6494 6.7109 20.3846 6.71209 21.1328C6.71329 21.8811 6.91159 22.6157 7.28703 23.2626L11.0933 29.8623L8.69943 32.467L5.26419 33.198Z" fill="url(#paint2_linear_102_16)"/>
<path fill-rule="evenodd" clip-rule="evenodd" d="M28.9756 24.7726L35.6944 13.1194L41.5236 16.4871L34.8047 28.1444L31.3575 27.3773L28.9756 24.7726Z" fill="url(#paint3_linear_102_16)"/>
<path fill-rule="evenodd" clip-rule="evenodd" d="M24.4035 0H32.0161C33.9432 0.00010319 35.8359 0.508092 37.5045 1.4729C39.173 2.43771 40.5587 3.82533 41.5218 5.49628C42.485 7.16724 42.9921 9.06264 42.9917 10.992C42.9913 12.9213 42.4838 14.8165 41.5198 16.4871L35.6947 13.1154C36.0713 12.4686 36.2708 11.7338 36.2728 10.9851C36.2748 10.2364 36.0789 9.50049 35.7059 8.85183C35.3324 8.20313 34.7946 7.66469 34.1466 7.29097C33.4987 6.9172 32.7638 6.72145 32.0161 6.72348H24.4035L23.3462 3.35575L24.4035 0Z" fill="url(#paint4_linear_102_16)"/>
<path fill-rule="evenodd" clip-rule="evenodd" d="M43.5468 33.1981L39.7405 39.7977C38.7774 41.4684 37.3917 42.8558 35.7232 43.8206C34.0546 44.7854 32.1614 45.2931 30.2348 45.2931C28.3081 45.2931 26.4153 44.7854 24.7468 43.8206C23.0778 42.8558 21.6925 41.4684 20.729 39.7977L26.5581 36.43C26.9312 37.0762 27.4678 37.6127 28.1134 37.9858C28.7589 38.3588 29.4915 38.5551 30.2368 38.5551C30.9825 38.5551 31.7146 38.3588 32.3601 37.9858C33.0061 37.6127 33.5423 37.0762 33.9154 36.43L37.7177 29.8303L41.1609 30.5974L43.5468 33.1981Z" fill="url(#paint5_linear_102_16)"/>
<path fill-rule="evenodd" clip-rule="evenodd" d="M16.7945 0H24.4031V6.73946H16.7945C16.0472 6.73867 15.3131 6.93522 14.666 7.30922C14.0188 7.68323 13.4814 8.22155 13.1083 8.86981C12.7353 9.51807 12.5394 10.2534 12.541 11.0016C12.5422 11.7498 12.7405 12.4844 13.1159 13.1314L19.8348 24.7726L14.0057 28.1444L7.28679 16.4871C6.32285 14.8165 5.81534 12.9213 5.81494 10.992C5.81454 9.06264 6.32165 7.16724 7.28479 5.49628C8.24794 3.82533 9.6336 2.43771 11.3021 1.4729C12.9707 0.508092 14.8635 0.00010319 16.7905 0H16.7945Z" fill="#F84435"/>
<path fill-rule="evenodd" clip-rule="evenodd" d="M47.365 26.5984L43.5587 33.198L37.7296 29.8303L41.5359 23.2307C41.9113 22.5837 42.1096 21.8491 42.1108 21.1009C42.1124 20.3527 41.9165 19.6174 41.5434 18.9691C41.1704 18.3208 40.633 17.7825 39.9858 17.4085C39.3387 17.0345 38.6045 16.838 37.8572 16.8388H24.4155V10.1353H37.8572C39.7807 10.1371 41.6703 10.6451 43.3361 11.6084C45.0018 12.5716 46.3855 13.9564 47.3486 15.6238C48.3114 17.2912 48.8201 19.1828 48.8229 21.1089C48.8257 23.0351 48.323 24.9281 47.365 26.5984Z" fill="#F84435"/>
<path fill-rule="evenodd" clip-rule="evenodd" d="M9.06264 39.7976L5.25635 33.1979L11.0855 29.8302L14.8878 36.4299C15.2608 37.076 15.7971 37.6126 16.443 37.9856C17.0886 38.3586 17.8207 38.555 18.5664 38.555C19.3117 38.555 20.0442 38.3586 20.6898 37.9856C21.3353 37.6126 21.872 37.076 22.245 36.4299L28.9639 24.7766L34.793 28.1443L28.0742 39.7976C27.111 41.4683 25.7253 42.8557 24.0564 43.8205C22.3879 44.7853 20.4951 45.293 18.5684 45.293C16.6417 45.293 14.7489 44.7853 13.08 43.8205C11.4114 42.8557 10.0258 41.4683 9.06264 39.7976Z" fill="#F84435"/>
<path fill-rule="evenodd" clip-rule="evenodd" d="M20.7206 20.6099C20.6683 20.5179 20.6412 20.4139 20.6416 20.3081C20.642 20.2023 20.6699 20.0984 20.7226 20.0068C20.7757 19.9152 20.8515 19.839 20.9428 19.7857C21.0338 19.7324 21.1375 19.704 21.2433 19.7031H27.5671C27.6729 19.704 27.7762 19.7324 27.8676 19.7857C27.9589 19.839 28.0348 19.9152 28.0874 20.0068C28.1405 20.0984 28.1684 20.2023 28.1688 20.3081C28.1692 20.4139 28.1417 20.5179 28.0898 20.6099L26.4939 23.3505L24.898 26.091C24.8445 26.1831 24.7679 26.2595 24.6761 26.3126C24.584 26.3657 24.4794 26.3937 24.3733 26.3937C24.2668 26.3937 24.1626 26.3657 24.0705 26.3126C23.9783 26.2595 23.9017 26.1831 23.8486 26.091L22.2527 23.3505L20.7206 20.6099Z" fill="#4B0F00"/>
<defs>
<linearGradient id="paint0_linear_102_16" x1="17.4929" y1="27.4413" x2="22.5577" y2="36.2046" gradientUnits="userSpaceOnUse">
<stop stop-color="#F84435"/>
<stop offset="1" stop-color="#6B1500"/>
</linearGradient>
<linearGradient id="paint1_linear_102_16" x1="24.4071" y1="13.4831" x2="10.9653" y2="13.4831" gradientUnits="userSpaceOnUse">
<stop stop-color="#F84435"/>
<stop offset="1" stop-color="#6B1500"/>
</linearGradient>
<linearGradient id="paint2_linear_102_16" x1="5.51554" y1="29.259" x2="5.63555" y2="10.7265" gradientUnits="userSpaceOnUse">
<stop stop-color="#F84435"/>
<stop offset="1" stop-color="#6B1500"/>
</linearGradient>
<linearGradient id="paint3_linear_102_16" x1="32.4547" y1="25.4757" x2="37.5235" y2="16.7125" gradientUnits="userSpaceOnUse">
<stop stop-color="#F84435"/>
<stop offset="1" stop-color="#6B1500"/>
</linearGradient>
<linearGradient id="paint4_linear_102_16" x1="27.9824" y1="2.58473" x2="43.5121" y2="11.173" gradientUnits="userSpaceOnUse">
<stop stop-color="#F84435"/>
<stop offset="1" stop-color="#6B1500"/>
</linearGradient>
<linearGradient id="paint5_linear_102_16" x1="40.2512" y1="35.1875" x2="24.2446" y2="42.7022" gradientUnits="userSpaceOnUse">
<stop stop-color="#F84435"/>
<stop offset="1" stop-color="#6B1500"/>
</linearGradient>
</defs>
</svg>
