<svg width="172" height="45" viewBox="0 0 172 45" fill="none" xmlns="http://www.w3.org/2000/svg">
<path fill-rule="evenodd" clip-rule="evenodd" d="M26.5641 35.749L20.849 39.058L14.2661 27.6174L16.6037 25.065L19.9773 24.3123L26.5641 35.749Z" fill="url(#paint0_linear_102_17)"/>
<path fill-rule="evenodd" clip-rule="evenodd" d="M24.4529 16.5376H11.2832V9.92334H24.4529L25.4888 13.2285L24.4529 16.5376Z" fill="url(#paint1_linear_102_17)"/>
<path fill-rule="evenodd" clip-rule="evenodd" d="M5.69722 32.581L1.96794 26.104C1.02937 24.4648 0.536826 22.6069 0.539562 20.7165C0.542298 18.8262 1.04071 16.9698 1.98397 15.3334C2.92763 13.6969 4.2833 12.3379 5.91534 11.3925C7.54739 10.4471 9.39874 9.94858 11.2833 9.94678V16.5571C10.5511 16.5563 9.83186 16.7492 9.19781 17.1163C8.56376 17.4833 8.0372 18.0116 7.6717 18.6478C7.3062 19.2841 7.11465 20.0057 7.11583 20.74C7.117 21.4743 7.31128 22.1953 7.67913 22.8302L11.4084 29.3072L9.06295 31.8635L5.69722 32.581Z" fill="url(#paint2_linear_102_17)"/>
<path fill-rule="evenodd" clip-rule="evenodd" d="M28.9287 24.3122L35.5116 12.8755L41.2228 16.1806L34.6399 27.6213L31.2624 26.8685L28.9287 24.3122Z" fill="url(#paint3_linear_102_17)"/>
<path fill-rule="evenodd" clip-rule="evenodd" d="M24.449 0H31.9075C33.7956 0.000101272 35.6501 0.498651 37.2849 1.44553C38.9197 2.39241 40.2773 3.75425 41.2209 5.39414C42.1646 7.03406 42.6614 8.89424 42.6611 10.7877C42.6607 12.6812 42.1634 14.5412 41.219 16.1807L35.5117 12.8717C35.8807 12.237 36.0762 11.5157 36.0781 10.781C36.0801 10.0462 35.8882 9.32395 35.5227 8.68734C35.1568 8.0507 34.6298 7.52226 33.995 7.15548C33.3602 6.78866 32.6401 6.59655 31.9075 6.59855H24.449L23.4131 3.29339L24.449 0Z" fill="url(#paint4_linear_102_17)"/>
<path fill-rule="evenodd" clip-rule="evenodd" d="M43.2047 32.581L39.4755 39.0581C38.5318 40.6977 37.1742 42.0593 35.5394 43.0062C33.9046 43.953 32.0497 44.4514 30.162 44.4514C28.2743 44.4514 26.4199 43.953 24.7851 43.0062C23.1499 42.0593 21.7927 40.6977 20.8486 39.0581L26.5598 35.7529C26.9253 36.3871 27.4511 36.9136 28.0836 37.2798C28.7161 37.6458 29.4338 37.8385 30.164 37.8385C30.8946 37.8385 31.6119 37.6458 32.2444 37.2798C32.8773 36.9136 33.4027 36.3871 33.7682 35.7529L37.4935 29.2759L40.8671 30.0287L43.2047 32.581Z" fill="url(#paint5_linear_102_17)"/>
<path fill-rule="evenodd" clip-rule="evenodd" d="M16.9942 0H24.4489V6.61423H16.9942C16.2621 6.61345 15.5428 6.80634 14.9087 7.1734C14.2747 7.54046 13.7481 8.06877 13.3826 8.70498C13.0171 9.3412 12.8252 10.0629 12.8268 10.7971C12.8279 11.5315 13.0222 12.2524 13.3901 12.8874L19.973 24.3123L14.2618 27.6214L7.67888 16.1807C6.73445 14.5412 6.23721 12.6812 6.23682 10.7877C6.23643 8.89424 6.73327 7.03406 7.67692 5.39414C8.62058 3.75425 9.97821 2.39241 11.613 1.44553C13.2478 0.498651 15.1022 0.000101272 16.9903 0H16.9942Z" fill="#F84435"/>
<path fill-rule="evenodd" clip-rule="evenodd" d="M46.946 26.104L43.2168 32.581L37.5056 29.2759L41.2348 22.7988C41.6027 22.1639 41.797 21.443 41.7982 20.7086C41.7997 19.9744 41.6078 19.2527 41.2423 18.6165C40.8768 17.9803 40.3502 17.4519 39.7162 17.0849C39.0821 16.7178 38.3628 16.5249 37.6307 16.5257H24.4609V9.94678H37.6307C39.5152 9.94858 41.3666 10.4471 42.9986 11.3925C44.6307 12.3379 45.9863 13.6969 46.93 15.3334C47.8733 16.9698 48.3717 18.8262 48.3744 20.7165C48.3772 22.6069 47.8846 24.4648 46.946 26.104Z" fill="#F84435"/>
<path fill-rule="evenodd" clip-rule="evenodd" d="M9.41873 39.058L5.68945 32.581L11.4006 29.2759L15.126 35.7529C15.4915 36.387 16.0169 36.9136 16.6498 37.2797C17.2823 37.6458 17.9996 37.8385 18.7302 37.8385C19.4604 37.8385 20.1781 37.6458 20.8106 37.2797C21.4431 36.9136 21.9689 36.387 22.3344 35.7529L28.9173 24.3162L34.6285 27.6213L28.0455 39.058C27.1019 40.6977 25.7443 42.0593 24.1091 43.0062C22.4743 43.953 20.6198 44.4513 18.7321 44.4513C16.8444 44.4513 14.99 43.953 13.3548 43.0062C11.72 42.0593 10.3624 40.6977 9.41873 39.058Z" fill="#F84435"/>
<path fill-rule="evenodd" clip-rule="evenodd" d="M20.8411 20.2269C20.7899 20.1366 20.7633 20.0344 20.7637 19.9306C20.7641 19.8268 20.7914 19.7249 20.843 19.635C20.895 19.545 20.9693 19.4702 21.0588 19.4179C21.1479 19.3657 21.2496 19.3377 21.3532 19.3369H27.5491C27.6527 19.3377 27.7539 19.3657 27.8434 19.4179C27.9329 19.4702 28.0072 19.545 28.0588 19.635C28.1108 19.7249 28.1382 19.8268 28.1386 19.9306C28.139 20.0344 28.112 20.1366 28.0612 20.2269L26.4975 22.9165L24.9339 25.6061C24.8815 25.6965 24.8065 25.7715 24.7165 25.8236C24.6262 25.8757 24.5238 25.9032 24.4198 25.9032C24.3155 25.9032 24.2134 25.8757 24.1231 25.8236C24.0328 25.7715 23.9578 25.6965 23.9058 25.6061L22.3422 22.9165L20.8411 20.2269Z" fill="#4B0F00"/>
<path d="M68.512 25H66.304C66.08 25 65.968 24.88 65.968 24.64V8.2C65.968 7.96 66.08 7.84 66.304 7.84H68.512C68.736 7.84 68.848 7.96 68.848 8.2V15.16L74.848 8.056C74.992 7.912 75.136 7.84 75.28 7.84H78.088C78.248 7.84 78.344 7.888 78.376 7.984C78.424 8.064 78.4 8.16 78.304 8.272L71.944 15.496L78.832 24.568C78.928 24.696 78.952 24.8 78.904 24.88C78.856 24.96 78.76 25 78.616 25H75.808C75.6 25 75.456 24.928 75.376 24.784L70.048 17.608L68.848 18.904V24.64C68.848 24.88 68.736 25 68.512 25ZM91.8171 25H88.9131C88.7371 25 88.6011 24.904 88.5051 24.712L82.6971 8.248C82.6171 7.976 82.7131 7.84 82.9851 7.84H85.3851C85.5931 7.84 85.7211 7.936 85.7691 8.128L88.9131 17.416C89.2011 18.264 89.6651 19.72 90.3051 21.784H90.4011C90.5771 21.24 90.8251 20.464 91.1451 19.456C91.4811 18.432 91.7051 17.752 91.8171 17.416L94.9371 8.128C94.9851 7.936 95.1211 7.84 95.3451 7.84H97.7451C98.0171 7.84 98.1051 7.976 98.0091 8.248L92.2011 24.712C92.1371 24.904 92.0091 25 91.8171 25ZM103.61 25H101.258C100.986 25 100.89 24.864 100.97 24.592L106.73 8.128C106.81 7.936 106.938 7.84 107.114 7.84H109.85C110.026 7.84 110.154 7.936 110.234 8.128L115.994 24.592C116.074 24.864 115.978 25 115.706 25H113.354C113.13 25 112.994 24.904 112.946 24.712L111.77 21.088H105.194L104.018 24.712C103.954 24.904 103.818 25 103.61 25ZM108.434 11.008L106.01 18.472H110.954L108.53 11.008H108.434ZM124.241 25H122.057C121.833 25 121.721 24.88 121.721 24.64V8.2C121.721 7.96 121.833 7.84 122.057 7.84H124.481C124.657 7.84 124.801 7.92 124.913 8.08L129.593 16.24C130.745 18.288 131.545 19.736 131.993 20.584L132.065 20.56C131.921 18.528 131.849 16.36 131.849 14.056V8.2C131.849 7.96 131.969 7.84 132.209 7.84H134.369C134.609 7.84 134.729 7.96 134.729 8.2V24.64C134.729 24.88 134.609 25 134.369 25H131.945C131.769 25 131.633 24.92 131.537 24.76L127.001 17.248C126.057 15.728 125.201 14.152 124.433 12.52L124.361 12.544C124.505 15.024 124.577 17.224 124.577 19.144V24.64C124.577 24.88 124.465 25 124.241 25ZM140.946 7.84H153.498C153.738 7.84 153.858 7.96 153.858 8.2V10.168C153.858 10.392 153.738 10.504 153.498 10.504H148.674V24.64C148.674 24.88 148.562 25 148.338 25H146.13C145.906 25 145.794 24.88 145.794 24.64V10.504H140.946C140.706 10.504 140.586 10.392 140.586 10.168V8.2C140.586 7.96 140.706 7.84 140.946 7.84ZM159.152 25H156.8C156.528 25 156.432 24.864 156.512 24.592L162.272 8.128C162.352 7.936 162.48 7.84 162.656 7.84H165.392C165.568 7.84 165.696 7.936 165.776 8.128L171.536 24.592C171.616 24.864 171.52 25 171.248 25H168.896C168.672 25 168.536 24.904 168.488 24.712L167.312 21.088H160.736L159.56 24.712C159.496 24.904 159.36 25 159.152 25ZM163.976 11.008L161.552 18.472H166.496L164.072 11.008H163.976ZM65.75 35.76V38.22H69.19C69.2633 38.22 69.3 38.2567 69.3 38.33V38.89C69.3 38.9633 69.2633 39 69.19 39H65.01C64.93 39 64.89 38.9633 64.89 38.89V31.96C64.89 31.8867 64.93 31.85 65.01 31.85H69.05C69.1233 31.85 69.16 31.8867 69.16 31.96V32.52C69.16 32.5933 69.1233 32.63 69.05 32.63H65.75V34.97H68.82C68.8933 34.97 68.93 35.01 68.93 35.09V35.64C68.93 35.72 68.8933 35.76 68.82 35.76H65.75ZM76.181 39H72.301C72.221 39 72.181 38.9633 72.181 38.89V31.96C72.181 31.8867 72.221 31.85 72.301 31.85H72.931C73.0043 31.85 73.041 31.8867 73.041 31.96V38.22H76.181C76.2543 38.22 76.291 38.2567 76.291 38.33V38.89C76.291 38.9633 76.2543 39 76.181 39ZM79.6582 35.76V38.22H83.0982C83.1715 38.22 83.2082 38.2567 83.2082 38.33V38.89C83.2082 38.9633 83.1715 39 83.0982 39H78.9182C78.8382 39 78.7982 38.9633 78.7982 38.89V31.96C78.7982 31.8867 78.8382 31.85 78.9182 31.85H82.9582C83.0315 31.85 83.0682 31.8867 83.0682 31.96V32.52C83.0682 32.5933 83.0315 32.63 82.9582 32.63H79.6582V34.97H82.7282C82.8015 34.97 82.8382 35.01 82.8382 35.09V35.64C82.8382 35.72 82.8015 35.76 82.7282 35.76H79.6582ZM90.6613 38.35C90.048 38.8567 89.2913 39.11 88.3913 39.11C87.6247 39.11 86.9947 38.8967 86.5013 38.47C86.008 38.0367 85.7613 37.4267 85.7613 36.64V34.22C85.7613 33.4267 86.0047 32.8167 86.4913 32.39C86.9847 31.9567 87.6113 31.74 88.3713 31.74C89.1647 31.74 89.8747 31.9733 90.5013 32.44C90.5547 32.48 90.5613 32.53 90.5213 32.59L90.2013 33.06C90.1613 33.1133 90.1047 33.12 90.0313 33.08C89.538 32.72 88.9813 32.54 88.3613 32.54C87.8013 32.54 87.368 32.69 87.0613 32.99C86.7613 33.29 86.6113 33.7 86.6113 34.22V36.63C86.6113 37.15 86.7647 37.56 87.0713 37.86C87.378 38.16 87.8113 38.31 88.3713 38.31C89.0647 38.31 89.678 38.1033 90.2113 37.69C90.2647 37.6367 90.3147 37.6467 90.3613 37.72L90.6913 38.18C90.7313 38.2533 90.7213 38.31 90.6613 38.35ZM98.3405 39H97.5605C97.4938 39 97.4471 38.9767 97.4205 38.93L95.4305 36.21H94.2205V38.89C94.2205 38.9633 94.1838 39 94.1105 39H93.4905C93.4105 39 93.3705 38.9633 93.3705 38.89V31.96C93.3705 31.8867 93.4105 31.85 93.4905 31.85H95.7405C96.5271 31.85 97.1438 32.0433 97.5905 32.43C98.0371 32.8167 98.2605 33.3533 98.2605 34.04C98.2605 34.6067 98.0938 35.0733 97.7605 35.44C97.4338 35.8067 96.9738 36.04 96.3805 36.14L98.4105 38.86C98.4371 38.9 98.4438 38.9333 98.4305 38.96C98.4171 38.9867 98.3871 39 98.3405 39ZM95.7505 32.63H94.2205V35.44H95.7505C96.8438 35.44 97.3905 34.9733 97.3905 34.04C97.3905 33.1 96.8438 32.63 95.7505 32.63ZM102.029 31.96V38.89C102.029 38.9633 101.992 39 101.919 39H101.299C101.219 39 101.179 38.9633 101.179 38.89V31.96C101.179 31.8867 101.219 31.85 101.299 31.85H101.919C101.992 31.85 102.029 31.8867 102.029 31.96ZM109.966 38.35C109.353 38.8567 108.596 39.11 107.696 39.11C106.929 39.11 106.299 38.8967 105.806 38.47C105.313 38.0367 105.066 37.4267 105.066 36.64V34.22C105.066 33.4267 105.309 32.8167 105.796 32.39C106.289 31.9567 106.916 31.74 107.676 31.74C108.469 31.74 109.179 31.9733 109.806 32.44C109.859 32.48 109.866 32.53 109.826 32.59L109.506 33.06C109.466 33.1133 109.409 33.12 109.336 33.08C108.843 32.72 108.286 32.54 107.666 32.54C107.106 32.54 106.673 32.69 106.366 32.99C106.066 33.29 105.916 33.7 105.916 34.22V36.63C105.916 37.15 106.069 37.56 106.376 37.86C106.683 38.16 107.116 38.31 107.676 38.31C108.369 38.31 108.983 38.1033 109.516 37.69C109.569 37.6367 109.619 37.6467 109.666 37.72L109.996 38.18C110.036 38.2533 110.026 38.31 109.966 38.35ZM115.439 31.85H120.579C120.659 31.85 120.699 31.8867 120.699 31.96V32.52C120.699 32.5933 120.659 32.63 120.579 32.63H118.439V38.89C118.439 38.9633 118.399 39 118.319 39H117.699C117.619 39 117.579 38.9633 117.579 38.89V32.63H115.439C115.366 32.63 115.329 32.5933 115.329 32.52V31.96C115.329 31.8867 115.366 31.85 115.439 31.85ZM124.064 35.76V38.22H127.504C127.578 38.22 127.614 38.2567 127.614 38.33V38.89C127.614 38.9633 127.578 39 127.504 39H123.324C123.244 39 123.204 38.9633 123.204 38.89V31.96C123.204 31.8867 123.244 31.85 123.324 31.85H127.364C127.438 31.85 127.474 31.8867 127.474 31.96V32.52C127.474 32.5933 127.438 32.63 127.364 32.63H124.064V34.97H127.134C127.208 34.97 127.244 35.01 127.244 35.09V35.64C127.244 35.72 127.208 35.76 127.134 35.76H124.064ZM135.068 38.35C134.454 38.8567 133.698 39.11 132.798 39.11C132.031 39.11 131.401 38.8967 130.908 38.47C130.414 38.0367 130.168 37.4267 130.168 36.64V34.22C130.168 33.4267 130.411 32.8167 130.898 32.39C131.391 31.9567 132.018 31.74 132.778 31.74C133.571 31.74 134.281 31.9733 134.908 32.44C134.961 32.48 134.968 32.53 134.928 32.59L134.608 33.06C134.568 33.1133 134.511 33.12 134.438 33.08C133.944 32.72 133.388 32.54 132.768 32.54C132.208 32.54 131.774 32.69 131.468 32.99C131.168 33.29 131.018 33.7 131.018 34.22V36.63C131.018 37.15 131.171 37.56 131.478 37.86C131.784 38.16 132.218 38.31 132.778 38.31C133.471 38.31 134.084 38.1033 134.618 37.69C134.671 37.6367 134.721 37.6467 134.768 37.72L135.098 38.18C135.138 38.2533 135.128 38.31 135.068 38.35ZM141.967 34.98V31.96C141.967 31.8867 142.007 31.85 142.087 31.85H142.707C142.78 31.85 142.817 31.8867 142.817 31.96V38.89C142.817 38.9633 142.78 39 142.707 39H142.087C142.007 39 141.967 38.9633 141.967 38.89V35.76H138.627V38.89C138.627 38.9633 138.59 39 138.517 39H137.897C137.817 39 137.777 38.9633 137.777 38.89V31.96C137.777 31.8867 137.817 31.85 137.897 31.85H138.517C138.59 31.85 138.627 31.8867 138.627 31.96V34.98H141.967ZM146.823 39H146.213C146.133 39 146.093 38.9633 146.093 38.89V31.96C146.093 31.8867 146.133 31.85 146.213 31.85H146.913C146.973 31.85 147.02 31.8767 147.053 31.93L149.703 36.25C150.156 37.0167 150.436 37.5033 150.543 37.71L150.573 37.7C150.533 36.8667 150.513 35.9633 150.513 34.99V31.96C150.513 31.8867 150.55 31.85 150.623 31.85H151.243C151.316 31.85 151.353 31.8867 151.353 31.96V38.89C151.353 38.9633 151.316 39 151.243 39H150.543C150.476 39 150.43 38.9767 150.403 38.93L147.773 34.76C147.44 34.22 147.15 33.7133 146.903 33.24L146.883 33.25C146.923 34.3033 146.943 35.1733 146.943 35.86V38.89C146.943 38.9633 146.903 39 146.823 39ZM155.484 31.96V38.89C155.484 38.9633 155.447 39 155.374 39H154.754C154.674 39 154.634 38.9633 154.634 38.89V31.96C154.634 31.8867 154.674 31.85 154.754 31.85H155.374C155.447 31.85 155.484 31.8867 155.484 31.96ZM163.421 38.35C162.808 38.8567 162.051 39.11 161.151 39.11C160.384 39.11 159.754 38.8967 159.261 38.47C158.768 38.0367 158.521 37.4267 158.521 36.64V34.22C158.521 33.4267 158.764 32.8167 159.251 32.39C159.744 31.9567 160.371 31.74 161.131 31.74C161.924 31.74 162.634 31.9733 163.261 32.44C163.314 32.48 163.321 32.53 163.281 32.59L162.961 33.06C162.921 33.1133 162.864 33.12 162.791 33.08C162.298 32.72 161.741 32.54 161.121 32.54C160.561 32.54 160.128 32.69 159.821 32.99C159.521 33.29 159.371 33.7 159.371 34.22V36.63C159.371 37.15 159.524 37.56 159.831 37.86C160.138 38.16 160.571 38.31 161.131 38.31C161.824 38.31 162.438 38.1033 162.971 37.69C163.024 37.6367 163.074 37.6467 163.121 37.72L163.451 38.18C163.491 38.2533 163.481 38.31 163.421 38.35ZM170.88 37.06C170.88 37.74 170.634 38.2533 170.14 38.6C169.647 38.94 169.02 39.11 168.26 39.11C167.78 39.11 167.344 39.0333 166.95 38.88C166.564 38.7267 166.167 38.4867 165.76 38.16C165.707 38.1133 165.7 38.06 165.74 38L166.08 37.53C166.127 37.4633 166.177 37.4533 166.23 37.5C166.924 38.0267 167.61 38.2933 168.29 38.3C168.784 38.3 169.194 38.1967 169.52 37.99C169.854 37.7833 170.02 37.48 170.02 37.08C170.02 36.6933 169.87 36.41 169.57 36.23C169.27 36.0433 168.797 35.88 168.15 35.74C167.817 35.6667 167.52 35.58 167.26 35.48C167 35.38 166.75 35.25 166.51 35.09C166.27 34.93 166.084 34.7267 165.95 34.48C165.824 34.2333 165.76 33.95 165.76 33.63C165.76 33.0033 166 32.5333 166.48 32.22C166.96 31.9 167.57 31.74 168.31 31.74C169.124 31.74 169.9 32.0067 170.64 32.54C170.707 32.58 170.717 32.63 170.67 32.69L170.34 33.16C170.3 33.22 170.247 33.2267 170.18 33.18C169.58 32.7667 168.934 32.55 168.24 32.53C167.754 32.53 167.36 32.63 167.06 32.83C166.767 33.0233 166.62 33.2967 166.62 33.65C166.62 34.0033 166.764 34.27 167.05 34.45C167.337 34.63 167.777 34.7867 168.37 34.92C168.67 34.9867 168.927 35.0533 169.14 35.12C169.36 35.1867 169.587 35.28 169.82 35.4C170.054 35.5133 170.24 35.64 170.38 35.78C170.527 35.92 170.647 36.1 170.74 36.32C170.834 36.54 170.88 36.7867 170.88 37.06Z" fill="white"/>
<defs>
<linearGradient id="paint0_linear_102_17" x1="17.6787" y1="26.9313" x2="22.6536" y2="35.5245" gradientUnits="userSpaceOnUse">
<stop stop-color="#F84435"/>
<stop offset="1" stop-color="#6B1500"/>
</linearGradient>
<linearGradient id="paint1_linear_102_17" x1="24.4529" y1="13.2324" x2="11.2832" y2="13.2324" gradientUnits="userSpaceOnUse">
<stop stop-color="#F84435"/>
<stop offset="1" stop-color="#6B1500"/>
</linearGradient>
<linearGradient id="paint2_linear_102_17" x1="5.94349" y1="28.7152" x2="6.06146" y2="10.527" gradientUnits="userSpaceOnUse">
<stop stop-color="#F84435"/>
<stop offset="1" stop-color="#6B1500"/>
</linearGradient>
<linearGradient id="paint3_linear_102_17" x1="32.3374" y1="25.0022" x2="37.3162" y2="16.4091" gradientUnits="userSpaceOnUse">
<stop stop-color="#F84435"/>
<stop offset="1" stop-color="#6B1500"/>
</linearGradient>
<linearGradient id="paint4_linear_102_17" x1="27.9554" y1="2.5367" x2="43.1829" y2="10.9436" gradientUnits="userSpaceOnUse">
<stop stop-color="#F84435"/>
<stop offset="1" stop-color="#6B1500"/>
</linearGradient>
<linearGradient id="paint5_linear_102_17" x1="39.9758" y1="34.5335" x2="24.2836" y2="41.8882" gradientUnits="userSpaceOnUse">
<stop stop-color="#F84435"/>
<stop offset="1" stop-color="#6B1500"/>
</linearGradient>
</defs>
</svg>
