<svg width="840" height="590" viewBox="0 0 840 590" fill="none" xmlns="http://www.w3.org/2000/svg">
<g clip-path="url(#clip0_28_754)">
<path fill-rule="evenodd" clip-rule="evenodd" d="M443.429 236.988L406.214 258.924L363.349 183.082L378.57 166.162L400.538 161.171L443.429 236.988Z" fill="url(#paint0_linear_28_754)"/>
<path fill-rule="evenodd" clip-rule="evenodd" d="M429.683 109.631H343.927V65.7839H429.683L436.429 87.6945L429.683 109.631Z" fill="url(#paint1_linear_28_754)"/>
<path fill-rule="evenodd" clip-rule="evenodd" d="M307.553 215.987L283.269 173.049C277.157 162.182 273.95 149.866 273.968 137.335C273.986 124.803 277.231 112.497 283.373 101.648C289.518 90.8 298.346 81.7909 308.973 75.5239C319.6 69.2567 331.655 65.9517 343.927 65.9397V109.761C339.159 109.756 334.476 111.034 330.347 113.468C326.218 115.901 322.79 119.403 320.41 123.621C318.03 127.839 316.782 132.622 316.79 137.49C316.798 142.358 318.063 147.138 320.458 151.347L344.742 194.284L329.469 211.23L307.553 215.987Z" fill="url(#paint2_linear_28_754)"/>
<path fill-rule="evenodd" clip-rule="evenodd" d="M458.829 161.171L501.695 85.355L538.884 107.266L496.018 183.108L474.025 178.118L458.829 161.171Z" fill="url(#paint3_linear_28_754)"/>
<path fill-rule="evenodd" clip-rule="evenodd" d="M429.659 0H478.226C490.52 0.000671355 502.596 3.30566 513.241 9.58274C523.886 15.8598 532.727 24.8877 538.871 35.7589C545.016 46.6303 548.251 58.9618 548.249 71.514C548.246 84.0662 545.008 96.3966 538.859 107.266L501.695 85.3291C504.098 81.1214 505.371 76.3403 505.383 71.4693C505.396 66.5983 504.146 61.8104 501.766 57.5902C499.384 53.3698 495.952 49.8667 491.819 47.4352C487.685 45.0035 482.996 43.7299 478.226 43.7432H429.659L422.913 21.8326L429.659 0Z" fill="url(#paint4_linear_28_754)"/>
<path fill-rule="evenodd" clip-rule="evenodd" d="M551.789 215.987L527.506 258.924C521.361 269.794 512.521 278.82 501.876 285.097C491.23 291.374 479.152 294.678 466.86 294.678C454.568 294.678 442.493 291.374 431.848 285.097C421.2 278.82 412.362 269.794 406.215 258.924L443.404 237.014C445.784 241.218 449.208 244.709 453.326 247.136C457.445 249.562 462.118 250.84 466.873 250.84C471.63 250.84 476.301 249.562 480.42 247.136C484.541 244.709 487.962 241.218 490.342 237.014L514.6 194.076L536.568 199.066L551.789 215.987Z" fill="url(#paint5_linear_28_754)"/>
<path fill-rule="evenodd" clip-rule="evenodd" d="M381.116 0H429.658V43.8471H381.116C376.348 43.8419 371.664 45.1207 367.536 47.554C363.407 49.9873 359.978 53.4896 357.598 57.7072C355.218 61.9248 353.968 66.709 353.979 71.5766C353.986 76.4445 355.251 81.224 357.647 85.433L400.512 161.171L363.323 183.108L320.458 107.266C314.308 96.3966 311.07 84.0662 311.067 71.514C311.065 58.9618 314.3 46.6303 320.445 35.7589C326.59 24.8877 335.43 15.8598 346.075 9.58274C356.72 3.30566 368.796 0.000671355 381.09 0H381.116Z" fill="#F84435"/>
<path fill-rule="evenodd" clip-rule="evenodd" d="M576.149 173.049L551.865 215.987L514.676 194.076L538.96 151.139C541.355 146.93 542.62 142.15 542.628 137.282C542.638 132.415 541.388 127.631 539.008 123.413C536.628 119.195 533.199 115.693 529.071 113.26C524.942 110.826 520.258 109.548 515.491 109.553H429.734V65.9397H515.491C527.762 65.9517 539.818 69.2567 550.445 75.5239C561.072 81.7909 569.9 90.8 576.045 101.648C582.187 112.497 585.432 124.803 585.45 137.335C585.468 149.866 582.261 162.182 576.149 173.049Z" fill="#F84435"/>
<path fill-rule="evenodd" clip-rule="evenodd" d="M331.786 258.924L307.502 215.987L344.691 194.076L368.949 237.014C371.329 241.218 374.75 244.709 378.871 247.135C382.99 249.562 387.661 250.84 392.418 250.84C397.173 250.84 401.847 249.562 405.965 247.135C410.084 244.709 413.507 241.218 415.887 237.014L458.753 161.197L495.942 183.108L453.077 258.924C446.932 269.794 438.091 278.82 427.444 285.097C416.799 291.374 404.723 294.678 392.431 294.678C380.139 294.678 368.063 291.374 357.416 285.097C346.771 278.82 337.93 269.794 331.786 258.924Z" fill="#F84435"/>
<path fill-rule="evenodd" clip-rule="evenodd" d="M406.163 134.088C405.83 133.49 405.657 132.813 405.659 132.125C405.662 131.436 405.84 130.761 406.176 130.165C406.514 129.568 406.998 129.072 407.581 128.726C408.161 128.379 408.823 128.194 409.498 128.189H449.843C450.518 128.194 451.177 128.379 451.76 128.726C452.343 129.072 452.826 129.568 453.162 130.165C453.501 130.761 453.679 131.436 453.682 132.125C453.684 132.813 453.509 133.49 453.178 134.088L442.996 151.919L432.814 169.749C432.473 170.347 431.984 170.845 431.399 171.19C430.811 171.536 430.144 171.718 429.467 171.718C428.787 171.718 428.123 171.536 427.535 171.19C426.947 170.845 426.458 170.347 426.12 169.749L415.938 151.919L406.163 134.088Z" fill="#4B0F00"/>
<path d="M59.972 501.671H43.412C41.732 501.671 40.892 500.771 40.892 498.971V375.671C40.892 373.871 41.732 372.971 43.412 372.971H59.972C61.652 372.971 62.492 373.871 62.492 375.671V427.871L107.492 374.591C108.572 373.511 109.652 372.971 110.732 372.971H131.792C132.992 372.971 133.712 373.331 133.952 374.051C134.312 374.651 134.132 375.371 133.412 376.211L85.712 430.391L137.372 498.431C138.092 499.391 138.272 500.171 137.912 500.771C137.552 501.371 136.832 501.671 135.752 501.671H114.692C113.132 501.671 112.052 501.131 111.452 500.051L71.492 446.231L62.492 455.951V498.971C62.492 500.771 61.652 501.671 59.972 501.671ZM234.76 501.671H212.98C211.66 501.671 210.64 500.951 209.92 499.511L166.36 376.031C165.76 373.991 166.48 372.971 168.52 372.971H186.52C188.08 372.971 189.04 373.691 189.4 375.131L212.98 444.791C215.14 451.151 218.62 462.071 223.42 477.551H224.14C225.46 473.471 227.32 467.651 229.72 460.091C232.24 452.411 233.92 447.311 234.76 444.791L258.16 375.131C258.52 373.691 259.54 372.971 261.22 372.971H279.22C281.26 372.971 281.92 373.991 281.2 376.031L237.64 499.511C237.16 500.951 236.2 501.671 234.76 501.671ZM323.204 501.671H305.564C303.524 501.671 302.804 500.651 303.404 498.611L346.604 375.131C347.204 373.691 348.164 372.971 349.484 372.971H370.004C371.324 372.971 372.284 373.691 372.884 375.131L416.084 498.611C416.684 500.651 415.964 501.671 413.924 501.671H396.284C394.604 501.671 393.584 500.951 393.224 499.511L384.404 472.331H335.084L326.264 499.511C325.784 500.951 324.764 501.671 323.204 501.671ZM359.384 396.731L341.204 452.711H378.284L360.104 396.731H359.384ZM477.94 501.671H461.56C459.88 501.671 459.04 500.771 459.04 498.971V375.671C459.04 373.871 459.88 372.971 461.56 372.971H479.74C481.06 372.971 482.14 373.571 482.98 374.771L518.08 435.971C526.72 451.331 532.72 462.191 536.08 468.551L536.62 468.371C535.54 453.131 535 436.871 535 419.591V375.671C535 373.871 535.9 372.971 537.7 372.971H553.9C555.7 372.971 556.6 373.871 556.6 375.671V498.971C556.6 500.771 555.7 501.671 553.9 501.671H535.72C534.4 501.671 533.38 501.071 532.66 499.871L498.64 443.531C491.56 432.131 485.14 420.311 479.38 408.071L478.84 408.251C479.92 426.851 480.46 443.351 480.46 457.751V498.971C480.46 500.771 479.62 501.671 477.94 501.671ZM603.23 372.971H697.37C699.17 372.971 700.07 373.871 700.07 375.671V390.431C700.07 392.111 699.17 392.951 697.37 392.951H661.19V498.971C661.19 500.771 660.35 501.671 658.67 501.671H642.11C640.43 501.671 639.59 500.771 639.59 498.971V392.951H603.23C601.43 392.951 600.53 392.111 600.53 390.431V375.671C600.53 373.871 601.43 372.971 603.23 372.971ZM739.77 501.671H722.13C720.09 501.671 719.37 500.651 719.97 498.611L763.17 375.131C763.77 373.691 764.73 372.971 766.05 372.971H786.57C787.89 372.971 788.85 373.691 789.45 375.131L832.65 498.611C833.25 500.651 832.53 501.671 830.49 501.671H812.85C811.17 501.671 810.15 500.951 809.79 499.511L800.97 472.331H751.65L742.83 499.511C742.35 500.951 741.33 501.671 739.77 501.671ZM775.95 396.731L757.77 452.711H794.85L776.67 396.731H775.95ZM95.3564 567.959V580.631H115.9C116.54 580.631 116.86 580.93 116.86 581.527V586.711C116.86 587.351 116.54 587.671 115.9 587.671H88.5084C87.9111 587.671 87.6124 587.351 87.6124 586.711V542.871C87.6124 542.231 87.9111 541.911 88.5084 541.911H115.004C115.644 541.911 115.964 542.231 115.964 542.871V548.055C115.964 548.653 115.644 548.951 115.004 548.951H95.3564V560.919H113.34C113.98 560.919 114.3 561.239 114.3 561.879V566.999C114.3 567.639 113.98 567.959 113.34 567.959H95.3564ZM161.272 587.671H135.608C135.011 587.671 134.712 587.351 134.712 586.711V542.871C134.712 542.231 135.011 541.911 135.608 541.911H141.56C142.158 541.911 142.456 542.231 142.456 542.871V580.567H161.272C161.912 580.567 162.232 580.866 162.232 581.463V586.711C162.232 587.351 161.912 587.671 161.272 587.671ZM185.619 567.959V580.631H206.163C206.803 580.631 207.123 580.93 207.123 581.527V586.711C207.123 587.351 206.803 587.671 206.163 587.671H178.771C178.174 587.671 177.875 587.351 177.875 586.711V542.871C177.875 542.231 178.174 541.911 178.771 541.911H205.267C205.907 541.911 206.227 542.231 206.227 542.871V548.055C206.227 548.653 205.907 548.951 205.267 548.951H185.619V560.919H203.603C204.243 560.919 204.563 561.239 204.563 561.879V566.999C204.563 567.639 204.243 567.959 203.603 567.959H185.619ZM255.451 583.767C251.44 586.882 246.534 588.439 240.731 588.439C235.611 588.439 231.387 587.053 228.059 584.279C224.731 581.506 223.067 577.453 223.067 572.119V557.527C223.067 552.194 224.731 548.141 228.059 545.367C231.387 542.551 235.568 541.143 240.603 541.143C245.638 541.143 250.203 542.573 254.299 545.431C254.768 545.773 254.832 546.199 254.491 546.711L251.483 551.063C251.184 551.575 250.736 551.661 250.139 551.319C247.366 549.399 244.187 548.439 240.603 548.439C237.531 548.439 235.12 549.25 233.371 550.871C231.664 552.493 230.811 554.733 230.811 557.591V571.927C230.811 574.829 231.664 577.09 233.371 578.711C235.12 580.333 237.552 581.143 240.667 581.143C244.678 581.143 248.219 580.034 251.291 577.815C251.846 577.431 252.272 577.517 252.571 578.071L255.579 582.423C255.92 582.978 255.878 583.426 255.451 583.767ZM304.908 587.671H297.676C297.207 587.671 296.844 587.458 296.588 587.031L285.388 570.967H279.692V586.711C279.692 587.351 279.394 587.671 278.796 587.671H272.908C272.311 587.671 272.012 587.351 272.012 586.711V542.871C272.012 542.231 272.311 541.911 272.908 541.911H287.756C293.004 541.911 297.079 543.213 299.98 545.815C302.924 548.375 304.396 551.938 304.396 556.503C304.396 560.002 303.458 562.925 301.58 565.271C299.746 567.618 297.143 569.239 293.772 570.135L305.484 586.519C305.954 587.287 305.762 587.671 304.908 587.671ZM287.756 549.015H279.692V564.055H287.756C290.743 564.055 292.94 563.458 294.348 562.263C295.799 561.026 296.524 559.127 296.524 556.567C296.524 553.965 295.799 552.066 294.348 550.871C292.94 549.634 290.743 549.015 287.756 549.015ZM330.042 542.871V586.711C330.042 587.351 329.744 587.671 329.146 587.671H323.258C322.661 587.671 322.362 587.351 322.362 586.711V542.871C322.362 542.231 322.661 541.911 323.258 541.911H329.146C329.744 541.911 330.042 542.231 330.042 542.871ZM381.126 583.767C377.115 586.882 372.209 588.439 366.406 588.439C361.286 588.439 357.062 587.053 353.734 584.279C350.406 581.506 348.742 577.453 348.742 572.119V557.527C348.742 552.194 350.406 548.141 353.734 545.367C357.062 542.551 361.243 541.143 366.278 541.143C371.313 541.143 375.878 542.573 379.974 545.431C380.443 545.773 380.507 546.199 380.166 546.711L377.158 551.063C376.859 551.575 376.411 551.661 375.814 551.319C373.041 549.399 369.862 548.439 366.278 548.439C363.206 548.439 360.795 549.25 359.046 550.871C357.339 552.493 356.486 554.733 356.486 557.591V571.927C356.486 574.829 357.339 577.09 359.046 578.711C360.795 580.333 363.227 581.143 366.342 581.143C370.353 581.143 373.894 580.034 376.966 577.815C377.521 577.431 377.947 577.517 378.246 578.071L381.254 582.423C381.595 582.978 381.553 583.426 381.126 583.767ZM415.58 541.911H449.052C449.692 541.911 450.012 542.231 450.012 542.871V548.119C450.012 548.717 449.692 549.015 449.052 549.015H436.188V586.711C436.188 587.351 435.889 587.671 435.292 587.671H429.404C428.807 587.671 428.508 587.351 428.508 586.711V549.015H415.58C414.94 549.015 414.62 548.717 414.62 548.119V542.871C414.62 542.231 414.94 541.911 415.58 541.911ZM473.381 567.959V580.631H493.925C494.565 580.631 494.885 580.93 494.885 581.527V586.711C494.885 587.351 494.565 587.671 493.925 587.671H466.533C465.936 587.671 465.637 587.351 465.637 586.711V542.871C465.637 542.231 465.936 541.911 466.533 541.911H493.029C493.669 541.911 493.989 542.231 493.989 542.871V548.055C493.989 548.653 493.669 548.951 493.029 548.951H473.381V560.919H491.365C492.005 560.919 492.325 561.239 492.325 561.879V566.999C492.325 567.639 492.005 567.959 491.365 567.959H473.381ZM543.213 583.767C539.203 586.882 534.296 588.439 528.493 588.439C523.373 588.439 519.149 587.053 515.821 584.279C512.493 581.506 510.829 577.453 510.829 572.119V557.527C510.829 552.194 512.493 548.141 515.821 545.367C519.149 542.551 523.331 541.143 528.365 541.143C533.4 541.143 537.965 542.573 542.061 545.431C542.531 545.773 542.595 546.199 542.253 546.711L539.245 551.063C538.947 551.575 538.499 551.661 537.901 551.319C535.128 549.399 531.949 548.439 528.365 548.439C525.293 548.439 522.883 549.25 521.133 550.871C519.427 552.493 518.573 554.733 518.573 557.591V571.927C518.573 574.829 519.427 577.09 521.133 578.711C522.883 580.333 525.315 581.143 528.429 581.143C532.44 581.143 535.981 580.034 539.053 577.815C539.608 577.431 540.035 577.517 540.333 578.071L543.341 582.423C543.683 582.978 543.64 583.426 543.213 583.767ZM585.503 560.983V542.871C585.503 542.231 585.802 541.911 586.399 541.911H592.287C592.884 541.911 593.183 542.231 593.183 542.871V586.711C593.183 587.351 592.884 587.671 592.287 587.671H586.399C585.802 587.671 585.503 587.351 585.503 586.711V568.087H567.455V586.711C567.455 587.351 567.156 587.671 566.559 587.671H560.671C560.074 587.671 559.775 587.351 559.775 586.711V542.871C559.775 542.231 560.074 541.911 560.671 541.911H566.559C567.156 541.911 567.455 542.231 567.455 542.871V560.983H585.503ZM619.97 587.671H614.146C613.549 587.671 613.25 587.351 613.25 586.711V542.871C613.25 542.231 613.549 541.911 614.146 541.911H620.61C621.079 541.911 621.463 542.125 621.762 542.551L634.242 564.311C637.314 569.773 639.447 573.634 640.642 575.895L640.834 575.831C640.45 570.413 640.258 564.631 640.258 558.487V542.871C640.258 542.231 640.578 541.911 641.218 541.911H646.978C647.618 541.911 647.938 542.231 647.938 542.871V586.711C647.938 587.351 647.618 587.671 646.978 587.671H640.514C640.045 587.671 639.682 587.458 639.426 587.031L627.33 566.999C624.813 562.946 622.53 558.743 620.482 554.391L620.29 554.455C620.674 561.069 620.866 566.935 620.866 572.055V586.711C620.866 587.351 620.567 587.671 619.97 587.671ZM675.717 542.871V586.711C675.717 587.351 675.419 587.671 674.821 587.671H668.933C668.336 587.671 668.037 587.351 668.037 586.711V542.871C668.037 542.231 668.336 541.911 668.933 541.911H674.821C675.419 541.911 675.717 542.231 675.717 542.871ZM726.801 583.767C722.79 586.882 717.884 588.439 712.081 588.439C706.961 588.439 702.737 587.053 699.409 584.279C696.081 581.506 694.417 577.453 694.417 572.119V557.527C694.417 552.194 696.081 548.141 699.409 545.367C702.737 542.551 706.918 541.143 711.953 541.143C716.988 541.143 721.553 542.573 725.649 545.431C726.118 545.773 726.182 546.199 725.841 546.711L722.833 551.063C722.534 551.575 722.086 551.661 721.489 551.319C718.716 549.399 715.537 548.439 711.953 548.439C708.881 548.439 706.47 549.25 704.721 550.871C703.014 552.493 702.161 554.733 702.161 557.591V571.927C702.161 574.829 703.014 577.09 704.721 578.711C706.47 580.333 708.902 581.143 712.017 581.143C716.028 581.143 719.569 580.034 722.641 577.815C723.196 577.431 723.622 577.517 723.921 578.071L726.929 582.423C727.27 582.978 727.228 583.426 726.801 583.767ZM775.17 574.679C775.17 579.202 773.506 582.637 770.178 584.983C766.85 587.287 762.669 588.439 757.634 588.439C754.52 588.439 751.682 587.949 749.122 586.967C746.605 585.986 744.002 584.429 741.314 582.295C740.888 581.869 740.824 581.421 741.122 580.951L744.322 576.471C744.664 576.002 745.09 575.938 745.602 576.279C749.912 579.394 754.029 581.015 757.954 581.143C760.514 581.143 762.69 580.61 764.482 579.543C766.317 578.434 767.234 576.855 767.234 574.807C767.234 573.698 766.978 572.759 766.466 571.991C765.954 571.181 765.144 570.519 764.034 570.007C762.925 569.495 761.88 569.111 760.898 568.855C759.96 568.557 758.616 568.237 756.866 567.895C746.498 565.719 741.314 561.047 741.314 553.879C741.314 549.655 742.914 546.477 746.114 544.343C749.357 542.21 753.453 541.143 758.402 541.143C763.48 541.143 768.493 542.829 773.442 546.199C773.997 546.541 774.082 546.967 773.698 547.479L770.626 551.895C770.328 552.407 769.88 552.471 769.282 552.087C765.656 549.741 761.837 548.503 757.826 548.375C755.096 548.375 752.962 548.887 751.426 549.911C749.89 550.893 749.122 552.258 749.122 554.007C749.122 554.818 749.293 555.543 749.634 556.183C749.976 556.781 750.381 557.293 750.85 557.719C751.362 558.103 752.088 558.487 753.026 558.871C753.965 559.213 754.818 559.49 755.586 559.703C756.397 559.917 757.485 560.173 758.85 560.471C760.386 560.813 761.666 561.133 762.69 561.431C763.757 561.73 764.973 562.135 766.338 562.647C767.746 563.159 768.92 563.757 769.858 564.439C770.797 565.122 771.693 565.933 772.546 566.871C773.442 567.81 774.104 568.941 774.53 570.263C774.957 571.586 775.17 573.058 775.17 574.679Z" fill="black"/>
</g>
<defs>
<linearGradient id="paint0_linear_28_754" x1="385.57" y1="178.534" x2="418.841" y2="234.983" gradientUnits="userSpaceOnUse">
<stop stop-color="#F84435"/>
<stop offset="1" stop-color="#6B1500"/>
</linearGradient>
<linearGradient id="paint1_linear_28_754" x1="429.683" y1="87.7205" x2="343.927" y2="87.7205" gradientUnits="userSpaceOnUse">
<stop stop-color="#F84435"/>
<stop offset="1" stop-color="#6B1500"/>
</linearGradient>
<linearGradient id="paint2_linear_28_754" x1="309.156" y1="190.36" x2="309.952" y2="69.7866" gradientUnits="userSpaceOnUse">
<stop stop-color="#F84435"/>
<stop offset="1" stop-color="#6B1500"/>
</linearGradient>
<linearGradient id="paint3_linear_28_754" x1="481.025" y1="165.746" x2="514.322" y2="109.297" gradientUnits="userSpaceOnUse">
<stop stop-color="#F84435"/>
<stop offset="1" stop-color="#6B1500"/>
</linearGradient>
<linearGradient id="paint4_linear_28_754" x1="452.491" y1="16.8163" x2="552.468" y2="71.0333" gradientUnits="userSpaceOnUse">
<stop stop-color="#F84435"/>
<stop offset="1" stop-color="#6B1500"/>
</linearGradient>
<linearGradient id="paint5_linear_28_754" x1="530.764" y1="228.93" x2="427.931" y2="276.272" gradientUnits="userSpaceOnUse">
<stop stop-color="#F84435"/>
<stop offset="1" stop-color="#6B1500"/>
</linearGradient>
<clipPath id="clip0_28_754">
<rect width="840" height="590" fill="white"/>
</clipPath>
</defs>
</svg>
